<?xml version="1.0" standalone="no"?>
<!DOCTYPE svg PUBLIC "-//W3C//DTD SVG 20010904//EN"
 "http://www.w3.org/TR/2001/REC-SVG-20010904/DTD/svg10.dtd">
<svg version="1.0" xmlns="http://www.w3.org/2000/svg"
 width="260.000000pt" height="260.000000pt" viewBox="0 0 260.000000 260.000000"
 preserveAspectRatio="xMidYMid meet">
<metadata>
Created by potrace 1.14, written by Peter Selinger 2001-2017
</metadata>
<g transform="translate(0.000000,260.000000) scale(0.100000,-0.100000)"
fill="#000000" stroke="none">
<path d="M0 1300 l0 -1300 1300 0 1300 0 0 1300 0 1300 -1300 0 -1300 0 0
-1300z m992 504 l-3 -345 198 3 c171 3 203 6 236 22 55 27 90 84 95 156 5 72
-9 118 -51 157 -51 49 -109 63 -257 63 l-130 0 4 31 c5 41 -9 158 -23 189 -6
14 -19 36 -28 49 l-17 24 214 -6 c235 -6 323 -21 428 -74 64 -32 145 -116 174
-180 18 -40 22 -67 22 -168 1 -110 -1 -125 -25 -176 -31 -65 -95 -134 -145
-155 -19 -8 -34 -16 -34 -18 0 -2 27 -13 60 -25 175 -64 280 -276 237 -482
-31 -154 -110 -261 -242 -331 -118 -61 -163 -69 -422 -75 l-231 -5 14 42 c8
23 15 87 17 146 l2 104 167 0 c143 0 176 3 220 20 71 27 115 72 134 138 34
117 -21 230 -133 272 -50 19 -78 20 -438 20 l-385 0 0 475 0 475 173 0 172 0
-3 -346z m-2 -1094 l0 -250 -170 0 -170 0 0 245 0 245 168 3 c92 1 168 4 170
5 1 1 2 -110 2 -248z"/>
</g>
</svg>
