<svg width="21" height="21" viewBox="0 0 21 21" fill="none" xmlns="http://www.w3.org/2000/svg">
<g clip-path="url(#clip0_241_53)">
<path d="M16.2704 11.1674C16.2914 9.53119 17.1489 8.02006 18.5428 7.16344C17.6599 5.90169 16.2328 5.13081 14.6937 5.08269C13.074 4.91294 11.5043 6.05131 10.6792 6.05131C9.8383 6.05131 8.5678 5.09931 7.1993 5.12731C5.39942 5.18594 3.76142 6.18431 2.88555 7.75844C1.02092 10.9872 2.4113 15.7332 4.19805 18.3433C5.0923 19.6217 6.13617 21.0488 7.5038 20.9989C8.84167 20.9438 9.3413 20.1458 10.9557 20.1458C12.5552 20.1458 13.0242 20.9989 14.4189 20.9666C15.8539 20.9429 16.7587 19.6829 17.6214 18.3923C18.2637 17.4814 18.7581 16.4752 19.0853 15.4103C17.3808 14.6893 16.2722 13.0189 16.2704 11.1674Z" fill="black"/>
<path d="M13.6358 3.36612C14.4181 2.42637 14.8039 1.21887 14.7103 0C13.5151 0.126 12.4099 0.697375 11.6172 1.60037C10.8341 2.492 10.4368 3.6575 10.5138 4.84225C11.7257 4.8545 12.8763 4.31025 13.6358 3.36612Z" fill="black"/>
</g>
<defs>
<clipPath id="clip0_241_53">
<rect width="21" height="21" fill="white"/>
</clipPath>
</defs>
</svg>
