<svg width="382" height="383" viewBox="0 0 382 383" fill="none" xmlns="http://www.w3.org/2000/svg">
<path d="M35.9375 176.495C36.7448 168.147 30.8317 160.967 22.5616 160.168C14.2895 159.366 7.0709 165.276 6.26358 173.627C5.46414 181.897 11.3773 189.076 19.6887 189.88C27.9982 190.683 35.1381 184.766 35.9375 176.495Z" fill="#0D0D0D"/>
<path d="M40.5157 148.393C42.2957 142.019 39.9919 137.819 35.402 136.539C31.9896 135.586 28.6756 136.909 27.2067 139.975C27.1654 137.632 25.7988 135.494 22.538 134.582C18.3262 133.408 14.9926 135.83 13.4055 141.519L11.2986 149.068C10.8851 150.547 11.4857 151.614 12.9664 152.028L35.2701 158.254C36.7488 158.666 37.8161 158.065 38.2296 156.586L40.5157 148.393ZM15.6837 148.003L17.1979 142.578C17.9599 139.847 19.7715 138.634 22.1226 139.292C24.6253 139.991 25.4326 141.933 24.6706 144.664L23.1563 150.088L15.6837 148.003ZM26.5333 151.032L28.2582 144.849C29.1482 141.661 31.4225 140.253 34.0394 140.983C36.6189 141.702 37.6329 144.071 36.7232 147.334L35.0298 153.402L26.5333 151.032Z" fill="#0D0D0D"/>
<path d="M49.3154 125.954C52.2592 119.722 50.4004 113.879 43.2783 110.518L30.4222 104.447C29.2821 103.91 27.8663 104.416 27.3288 105.556C26.7912 106.696 27.315 108.076 28.4551 108.614L41.4175 114.734C46.1905 116.987 47.2204 120.523 45.5053 124.156C43.808 127.751 40.4231 129.203 35.6501 126.95L22.6877 120.828C21.5476 120.291 20.1496 120.763 19.5943 121.939C19.0567 123.077 19.5805 124.457 20.7206 124.995L33.5767 131.065C40.6988 134.429 46.3894 132.15 49.3154 125.954Z" fill="#0D0D0D"/>
<path d="M55.2542 109.519C56.5203 110.317 57.8179 109.74 58.4067 108.807C59.0368 107.808 58.9797 106.422 57.7136 105.623L37.5995 92.928C36.3334 92.1286 35.0574 92.674 34.4273 93.6724C33.8386 94.6057 33.8405 96.0037 35.1401 96.8248L55.2542 109.519Z" fill="#0D0D0D"/>
<path d="M71.81 89.951C72.4873 89.0807 72.379 87.7476 71.4457 87.023C70.5458 86.32 69.2187 86.4854 68.5177 87.3853L62.2974 95.3719L45.1783 82.0373C44.1839 81.2634 42.7169 81.417 41.9175 82.4429C41.1437 83.4373 41.3524 84.8984 42.3468 85.6722L60.988 100.192C62.1064 101.062 63.2445 100.95 64.1385 99.8003L71.81 89.951Z" fill="#0D0D0D"/>
<path d="M81.9311 79.3751C88.2616 73.4029 87.856 65.3395 82.4765 59.641C77.099 53.9406 69.073 53.0663 62.7425 59.0385L57.7587 63.7407C56.6423 64.7941 56.6068 66.0189 57.6603 67.1373L73.5507 83.9788C74.6061 85.0972 75.8309 85.1326 76.9474 84.0792L81.9311 79.3751ZM62.2285 65.2647L65.6075 62.0748C69.6756 58.2371 74.8562 58.2765 79.1252 62.8014C83.3961 67.3283 83.1342 72.501 79.0661 76.3388L75.6871 79.5287L62.2285 65.2647Z" fill="#0D0D0D"/>
<path d="M102.102 59.8005C102.849 61.0961 104.247 61.1552 105.202 60.6058C106.225 60.0151 106.822 58.7628 106.096 57.5006L101.183 48.9686L112.716 42.325L117.63 50.857C118.377 52.1546 119.808 52.194 120.763 51.6426C121.754 51.0736 122.35 49.8212 121.624 48.5571L109.752 27.9448C109.004 26.6492 107.622 26.537 106.633 27.106C105.676 27.6574 104.993 28.9136 105.759 30.2447L110.672 38.7767L99.1368 45.4204L94.224 36.8884C93.4777 35.5907 92.0954 35.4785 91.0715 36.0692C90.1145 36.6186 89.4647 37.8571 90.2307 39.1882L102.102 59.8005Z" fill="#0D0D0D"/>
<path d="M131.414 19.2945C130.463 18.1722 129.201 17.5834 127.942 18.0383L126.794 18.4557C125.684 18.8574 125.048 20.22 125.046 21.6023L125.107 46.0424C125.103 46.3791 125.16 46.6509 125.255 46.9108C125.709 48.169 127.139 48.5313 128.177 48.1552C128.955 47.8736 129.644 47.1215 129.602 45.9637L129.466 40.273L139.834 36.516L143.362 40.9346C144.071 41.8503 145.097 42.0235 145.912 41.7282C147.023 41.3245 147.923 39.9934 147.452 38.6978C147.371 38.4753 147.241 38.2311 147.023 37.9751L131.414 19.2945ZM129.388 36.2404C129.112 26.1193 128.862 23.2347 128.389 21.3542C129.297 23.1618 131.063 25.4951 137.309 33.3675L129.388 36.2404Z" fill="#0D0D0D"/>
<path d="M162.6 37.7114C169.1 36.4709 171.837 32.5426 170.945 27.8602C170.281 24.3788 167.621 22.0002 164.223 22.0475C166.302 20.9684 167.611 18.7945 166.977 15.4668C166.158 11.1742 162.507 9.26424 156.705 10.3709L149.006 11.8398C147.497 12.1273 146.808 13.1414 147.096 14.6497L151.435 37.3964C151.723 38.9047 152.735 39.5939 154.245 39.3044L162.6 37.7114ZM151.91 15.2955L157.441 14.2401C160.227 13.7084 162.118 14.7914 162.574 17.1898C163.063 19.7417 161.68 21.3288 158.896 21.8604L153.363 22.9158L151.91 15.2955ZM154.021 26.3578L160.326 25.1546C163.575 24.5364 165.849 25.9462 166.357 28.6163C166.859 31.247 165.189 33.2082 161.862 33.8422L155.673 35.0237L154.021 26.3578Z" fill="#0D0D0D"/>
<path d="M175.791 33.7554C175.907 35.246 177.146 35.9411 178.244 35.8564C179.422 35.7658 180.501 34.8916 180.385 33.399L178.552 9.6835C178.437 8.19291 177.238 7.49388 176.059 7.58643C174.96 7.6711 173.84 8.50796 173.958 10.0399L175.791 33.7554Z" fill="#0D0D0D"/>
<path d="M195.184 35.4373C196.483 35.4786 197.539 34.4469 197.578 33.1866L198.248 11.4993L203.956 11.6745C205.097 11.71 206.071 10.7943 206.106 9.65227C206.142 8.51218 205.226 7.5375 204.085 7.50205L188.064 7.00783C186.923 6.97239 185.949 7.888 185.913 9.03006C185.878 10.1702 186.794 11.1448 187.935 11.1803L193.643 11.3555L192.973 33.0449C192.934 34.3051 193.925 35.3999 195.184 35.4373Z" fill="#0D0D0D"/>
<path d="M217.591 37.7964C223.026 38.7258 227.567 36.4653 228.39 31.6509C229.957 22.4908 215.753 22.1403 216.809 15.9672C217.174 13.8328 219.217 12.864 221.469 13.2479C223.759 13.6398 225.079 15.2643 225.479 17.3692C225.739 18.6531 226.474 19.2576 227.289 19.3974C228.415 19.5903 229.707 18.8125 229.939 17.4539C229.992 17.1428 230.013 16.7864 229.917 16.4103C229.136 12.801 226.357 10.1289 222.087 9.39841C217.041 8.53596 212.881 10.9008 212.124 15.3253C210.584 24.3319 224.545 25.4011 223.569 31.1074C223.204 33.2419 221.199 34.4568 218.248 33.9527C215.803 33.5353 213.99 31.9856 213.639 29.1285C213.515 27.9904 212.786 27.3445 211.932 27.1988C210.767 27 209.405 27.7265 209.159 29.162C209.093 29.5499 209.111 29.9142 209.193 30.3671C210.095 34.4371 213.205 37.0461 217.591 37.7964Z" fill="#0D0D0D"/>
<path d="M247.208 45.7884C248.418 46.2629 249.76 45.6466 250.22 44.475L258.147 24.2743L263.463 26.3615C264.526 26.777 265.751 26.2434 266.168 25.1801C266.585 24.1168 266.05 22.892 264.987 22.4746L250.067 16.6205C249.004 16.2031 247.779 16.7367 247.361 17.8C246.944 18.8633 247.479 20.0881 248.542 20.5055L253.858 22.5907L245.931 42.7915C245.47 43.965 246.035 45.3276 247.208 45.7884Z" fill="#0D0D0D"/>
<path d="M275.562 46.7534C279.187 48.8249 284.619 49.1596 287.568 43.9947C290.146 39.4816 288.547 34.8957 283.383 31.946L276.099 27.7873C274.868 27.0844 273.759 27.358 273.036 28.6222L261.319 49.1419C260.694 50.2367 261.056 51.6682 262.151 52.2924C263.279 52.9363 264.695 52.5208 265.32 51.426C267.449 47.6986 268.962 44.8907 269.992 42.8487L273.831 57.9653C274.022 58.6643 274.364 59.1763 274.911 59.4894C275.971 60.0939 277.364 59.8005 277.91 58.8435C278.145 58.432 278.242 57.9436 278.081 57.3529C276.643 51.7706 275.597 48.0431 274.947 46.4029L275.562 46.7534ZM280.971 35.3761C284.015 37.1148 284.719 39.6923 283.371 42.0532C282.024 44.4122 279.425 45.1506 276.382 43.4119L271.491 40.6197L276.081 32.584L280.971 35.3761Z" fill="#0D0D0D"/>
<path d="M307.705 51.5619C308.174 50.1697 308.027 48.7835 306.986 47.9427L306.037 47.1747C305.118 46.4324 303.623 46.5899 302.438 47.3027L281.547 59.9875C281.257 60.1588 281.053 60.3479 280.879 60.5625C280.038 61.6041 280.467 63.014 281.324 63.7071C281.968 64.2269 282.969 64.4297 283.938 63.7957L288.739 60.7377L297.313 67.6708L295.354 72.9755C294.937 74.0565 295.319 75.0234 295.993 75.5688C296.912 76.3111 298.516 76.3938 299.383 75.3207C299.532 75.1375 299.674 74.8993 299.781 74.5783L307.705 51.5619ZM292.151 58.5855C300.673 53.1194 303.013 51.4142 304.38 50.0378C303.301 51.7489 302.216 54.4682 298.705 63.8843L292.151 58.5855Z" fill="#0D0D0D"/>
<path d="M314.939 93.5859C315.868 93.9187 316.692 93.6607 317.221 93.1901C317.957 92.5344 318.185 91.4888 317.478 90.6933C317.295 90.4885 317.056 90.2778 316.703 90.1183C315.129 89.3583 313.686 88.2694 312.534 86.9757C309.131 83.1498 308.153 77.4316 313.419 72.7452C318.743 68.0057 324.222 69.7187 327.6 73.5151C328.778 74.8383 329.718 76.4274 330.291 78.0775C330.409 78.4476 330.589 78.7095 330.772 78.9163C331.479 79.7098 332.545 79.6035 333.281 78.9498C333.839 78.4516 334.192 77.664 333.966 76.7582C333.422 74.606 332.237 72.4459 330.561 70.5635C325.979 65.4144 317.857 62.6262 310.355 69.3033C302.883 75.9528 304.622 84.4218 309.203 89.5709C310.853 91.4238 312.862 92.8514 314.939 93.5859Z" fill="#0D0D0D"/>
<path d="M348.418 101.83C349.234 102.009 349.859 101.889 350.323 101.592C351.284 100.976 351.418 99.5795 350.801 98.6186C350.44 98.0535 349.692 97.6912 348.734 97.51L332.848 94.5544C334.889 93.4321 336.501 92.4436 341.871 88.9997C343.131 88.1924 343.178 86.8042 342.54 85.8098C341.944 84.8823 340.677 84.2916 339.384 85.1206L319.362 97.9629C318.103 98.7722 318.077 100.192 318.673 101.119C319.311 102.114 320.59 102.649 321.85 101.842C327.518 98.2071 329.221 97.067 331.39 95.4897L326.554 111.364C326.24 112.406 326.358 113.174 326.698 113.704C327.4 114.798 328.793 115.074 329.755 114.458C330.185 114.18 330.543 113.717 330.707 113.097L334.659 99.0538L348.418 101.83Z" fill="#0D0D0D"/>
<path d="M336.147 126.851C334.967 127.294 334.331 128.625 334.774 129.805C335.23 131.022 336.586 131.607 337.766 131.165L344.513 128.633L346.491 133.904C348.622 139.583 353.449 142.358 358.979 140.282C364.584 138.179 366.099 133.026 364.051 127.568L361.16 119.863C360.662 118.536 359.634 118.038 358.27 118.55L336.147 126.851ZM358.045 123.555L360.106 129.049C361.213 131.998 360.435 134.857 357.264 136.047C354.093 137.236 351.603 135.647 350.483 132.66L348.421 127.166L358.045 123.555Z" fill="#0D0D0D"/>
<path d="M355.561 158.868C356.405 162.956 359.746 167.251 365.57 166.048C370.661 164.996 373.043 160.765 371.84 154.94L370.143 146.725C369.856 145.337 368.917 144.687 367.49 144.982L344.35 149.763C343.116 150.017 342.282 151.236 342.537 152.471C342.8 153.743 344.048 154.53 345.283 154.275C349.486 153.406 352.594 152.684 354.807 152.107L346.007 164.984C345.609 165.589 345.451 166.183 345.578 166.802C345.825 167.997 346.966 168.848 348.046 168.623C348.509 168.529 348.94 168.279 349.276 167.767C352.513 162.996 354.616 159.747 355.417 158.173L355.561 158.868ZM367.672 155.399C368.382 158.833 366.913 161.066 364.252 161.615C361.591 162.167 359.318 160.706 358.609 157.273L357.47 151.758L366.533 149.885L367.672 155.399Z" fill="#0D0D0D"/>
<path d="M347.064 186.446C347.283 194.555 353.589 200.491 361.817 200.269C370.045 200.047 376.021 193.779 375.802 185.67C375.582 177.52 369.276 171.624 361.049 171.847C352.821 172.069 346.844 178.297 347.064 186.446ZM351.394 186.329C351.244 180.778 355.622 176.602 361.173 176.452C366.724 176.303 371.321 180.235 371.471 185.786C371.621 191.337 367.243 195.513 361.692 195.663C356.142 195.813 351.544 191.879 351.394 186.329Z" fill="#0D0D0D"/>
<path d="M344.912 218.173C343.499 226.442 349.082 232.111 355.077 233.735C357.062 234.274 358.32 233.69 358.606 232.021L360.71 219.716C360.936 218.396 360.039 217.564 359.03 217.391C358.059 217.225 356.937 217.712 356.712 219.032L355.019 228.931C350.765 227.404 348.315 223.51 349.118 218.813C350.08 213.184 354.949 210.181 360.655 211.157C366.439 212.145 370 216.79 369.024 222.496C368.48 225.679 366.77 227.504 365.145 228.824C364.496 229.353 364.157 229.934 364.064 230.477C363.878 231.564 364.638 232.493 365.764 232.686C366.462 232.805 367.285 232.666 368.071 232.041C370.507 230.181 372.52 227.289 373.23 223.135C374.657 214.789 369.351 207.969 361.509 206.628C353.59 205.274 346.32 209.944 344.912 218.173Z" fill="#0D0D0D"/>
<path d="M348.813 248.756C347.421 252.692 348.056 258.097 353.662 260.081C358.562 261.815 362.791 259.427 364.775 253.821L367.574 245.914C368.047 244.577 367.581 243.535 366.207 243.049L343.932 235.165C342.744 234.744 341.4 235.354 340.98 236.543C340.546 237.768 341.207 239.088 342.395 239.508C346.441 240.94 349.475 241.931 351.667 242.581L337.473 249.046C336.82 249.357 336.376 249.785 336.166 250.379C335.759 251.53 336.295 252.848 337.334 253.216C337.78 253.373 338.278 253.382 338.831 253.119C344.069 250.712 347.55 249.02 349.05 248.088L348.813 248.756ZM360.971 252.057C359.802 255.361 357.389 256.513 354.828 255.606C352.266 254.699 351.078 252.273 352.247 248.969L354.126 243.66L362.85 246.748L360.971 252.057Z" fill="#0D0D0D"/>
<path d="M326.19 270.936C325.654 271.944 326.044 273.223 327.052 273.759C328.06 274.296 329.338 273.906 329.875 272.898L335.021 263.235L342.042 266.974L337.989 274.586C337.47 275.559 337.879 276.803 338.852 277.322C339.791 277.821 341.051 277.466 341.569 276.493L345.623 268.88L352.331 272.453L347.186 282.116C346.649 283.124 347.039 284.403 348.047 284.939C349.055 285.476 350.333 285.086 350.87 284.078L357.053 272.468C357.774 271.113 357.417 269.941 356.061 269.219L335.622 258.335C334.267 257.613 333.095 257.97 332.373 259.326L326.19 270.936Z" fill="#0D0D0D"/>
<path d="M317.803 282.836C314.56 287.294 314.571 292.367 318.52 295.24C326.036 300.707 332.65 288.133 337.714 291.816C339.465 293.09 339.427 295.352 338.084 297.199C336.717 299.078 334.676 299.541 332.611 298.964C331.346 298.628 330.477 299.019 329.991 299.688C329.319 300.612 329.443 302.114 330.558 302.925C330.813 303.11 331.123 303.287 331.502 303.368C335.083 304.269 338.711 302.963 341.26 299.46C344.271 295.32 343.997 290.543 340.366 287.902C332.978 282.527 325.828 294.566 321.146 291.16C319.395 289.886 319.195 287.55 320.956 285.129C322.415 283.123 324.607 282.185 327.323 283.138C328.4 283.532 329.3 283.164 329.81 282.463C330.505 281.508 330.459 279.965 329.28 279.108C328.962 278.876 328.629 278.731 328.186 278.604C324.138 277.607 320.421 279.237 317.803 282.836Z" fill="#0D0D0D"/>
<path d="M303.443 300.037C299.601 303.992 298.895 309.015 302.397 312.417C309.064 318.893 317.391 307.381 321.883 311.744C323.436 313.253 323.079 315.486 321.487 317.125C319.868 318.792 317.782 318.961 315.82 318.098C314.615 317.587 313.7 317.851 313.124 318.444C312.328 319.263 312.238 320.769 313.227 321.729C313.453 321.948 313.735 322.167 314.099 322.301C317.517 323.699 321.293 322.921 324.311 319.813C327.878 316.141 328.283 311.373 325.062 308.245C318.509 301.879 309.727 312.784 305.575 308.751C304.021 307.242 304.154 304.9 306.239 302.753C307.968 300.974 310.271 300.355 312.824 301.683C313.835 302.225 314.778 301.989 315.382 301.367C316.205 300.52 316.378 298.985 315.333 297.97C315.05 297.696 314.741 297.505 314.321 297.316C310.454 295.757 306.543 296.845 303.443 300.037Z" fill="#0D0D0D"/>
<path d="M279.581 336.094L293.1 341.046L285.164 346.178C284.337 346.713 284.091 347.856 284.647 348.716C285.182 349.543 286.326 349.788 287.152 349.254L298.661 341.812C299.785 341.085 300.126 340.161 299.655 339.434C299.42 339.07 298.977 338.747 298.313 338.519L290.649 335.878L290.749 335.814C295.544 332.713 297.029 327.25 294.057 322.653C290.999 317.924 285.248 316.719 280.42 319.841C277.113 321.979 275.911 324.398 275.535 330.128L269.907 327.952C269.147 327.646 268.402 327.799 267.84 328.163C266.881 328.783 266.392 330.131 267.012 331.09C267.248 331.454 267.615 331.732 268.17 331.936L275.538 334.628L275.498 344.503C275.492 344.928 275.606 345.323 275.778 345.588C276.376 346.514 277.707 346.685 278.599 346.108C279.063 345.809 279.409 345.257 279.43 344.492L279.581 336.094ZM282.739 323.5C285.418 321.768 288.685 322.469 290.375 325.081C292.214 327.926 291.351 331.016 288.706 332.726C286.953 333.86 285.271 333.869 283.087 333.03L279.643 331.693C279.846 326.496 280.424 324.997 282.739 323.5Z" fill="#0D0D0D"/>
<path d="M245.497 350.408C241.556 351.786 237.74 355.666 239.703 361.279C241.419 366.186 245.929 367.988 251.542 366.025L259.46 363.256C260.799 362.788 261.319 361.772 260.838 360.396L253.038 338.092C252.622 336.902 251.305 336.236 250.115 336.652C248.888 337.082 248.273 338.423 248.689 339.613C250.106 343.665 251.233 346.65 252.099 348.767L238.171 341.747C237.519 341.433 236.907 341.355 236.312 341.563C235.16 341.966 234.468 343.209 234.832 344.25C234.988 344.696 235.293 345.09 235.845 345.356C241.002 347.933 244.501 349.588 246.166 350.174L245.497 350.408ZM250.536 361.954C247.227 363.112 244.819 361.951 243.922 359.386C243.025 356.821 244.172 354.376 247.481 353.219L252.797 351.36L255.852 360.095L250.536 361.954Z" fill="#0D0D0D"/>
<path d="M214.355 346.628C213.234 346.842 212.482 347.948 212.696 349.07C212.91 350.191 214.016 350.943 215.138 350.729L225.892 348.678L227.382 356.492L218.911 358.108C217.827 358.314 217.115 359.412 217.321 360.496C217.521 361.54 218.587 362.299 219.67 362.092L228.142 360.476L229.566 367.942L218.812 369.993C217.69 370.207 216.939 371.313 217.153 372.435C217.367 373.557 218.472 374.308 219.594 374.094L232.515 371.63C234.023 371.342 234.712 370.328 234.424 368.82L230.086 346.073C229.798 344.565 228.785 343.876 227.276 344.164L214.355 346.628Z" fill="#0D0D0D"/>
<path d="M175.586 376.369C176.492 376.373 177.439 375.864 177.76 374.645C181.436 360.718 182.476 356.587 182.919 353.792C183.498 356.984 184.35 360.493 187.843 373.935C188.27 375.591 189.37 376.422 190.906 376.428C192.363 376.434 193.587 375.651 193.987 374.038C197.504 360.544 198.503 356.727 199.028 353.5C199.49 356.298 200.303 359.767 204.184 374.668C204.494 375.89 205.477 376.445 206.422 376.449C207.603 376.453 208.828 375.592 208.833 374.174C208.834 373.977 208.835 373.741 208.757 373.504L202.505 350.52C202.078 348.904 200.782 348.033 199.285 348.027C197.75 348.021 196.526 348.804 196.046 350.574C192.531 363.36 191.492 367.451 191.046 370.6C190.741 368 189.966 364.649 186.397 350.616C185.932 348.763 184.597 347.97 183.139 347.965C181.564 347.959 180.339 348.781 179.861 350.472L173.392 373.525C173.312 373.761 173.272 373.997 173.27 374.234C173.266 375.533 174.405 376.365 175.586 376.369Z" fill="#0D0D0D"/>
<path d="M152.572 369.979C152.8 371.432 153.57 372.592 154.881 372.858L156.079 373.1C157.236 373.335 158.489 372.504 159.211 371.324L171.884 350.426C172.062 350.141 172.156 349.878 172.211 349.608C172.477 348.296 171.443 347.243 170.364 347.024C169.553 346.86 168.57 347.143 168.005 348.153L165.158 353.081L154.352 350.891L153.639 345.282C153.511 344.131 152.725 343.45 151.875 343.278C150.717 343.043 149.256 343.711 148.982 345.062C148.935 345.294 148.919 345.572 148.972 345.904L152.572 369.979ZM163.126 356.567C158.091 365.351 156.801 367.943 156.226 369.795C156.394 367.78 156.1 364.867 154.866 354.893L163.126 356.567Z" fill="#0D0D0D"/>
<path d="M130.439 348.195C126.536 346.714 121.118 347.227 119.009 352.787C117.164 357.647 119.456 361.928 125.016 364.038L132.857 367.015C134.184 367.518 135.236 367.075 135.754 365.712L144.138 343.621C144.585 342.443 144.004 341.085 142.827 340.638C141.612 340.177 140.277 340.808 139.83 341.986C138.306 345.999 137.248 349.01 136.547 351.187L130.406 336.851C130.108 336.191 129.691 335.737 129.102 335.514C127.96 335.081 126.631 335.587 126.239 336.618C126.072 337.06 126.052 337.558 126.302 338.116C128.59 343.407 130.205 346.926 131.101 348.446L130.439 348.195ZM126.865 360.275C123.589 359.032 122.492 356.594 123.455 354.053C124.42 351.513 126.871 350.379 130.148 351.623L135.413 353.621L132.131 362.274L126.865 360.275Z" fill="#0D0D0D"/>
<path d="M115.13 328.686C107.604 324.314 99.9894 326.996 96.0532 333.772C92.117 340.549 93.5604 348.492 101.086 352.864L107.011 356.305C108.338 357.077 109.524 356.763 110.296 355.435L121.925 335.411C122.697 334.083 122.384 332.899 121.054 332.127L115.13 328.686ZM107.2 351.588L103.183 349.254C98.3472 346.445 96.9117 341.467 100.037 336.087C103.162 330.706 108.196 329.486 113.033 332.295L117.051 334.629L107.2 351.588Z" fill="#0D0D0D"/>
<path d="M85.5029 307.03C84.5794 306.172 83.1065 306.254 82.248 307.177L75.7855 314.127L60.6591 318.076C60.1353 318.235 59.7534 318.472 59.4856 318.76C58.6802 319.625 58.8988 321.011 59.7356 321.788C60.3126 322.325 61.1278 322.546 62.065 322.289C70.6758 319.97 73.0209 319.355 74.7734 318.511C74.0902 320.403 73.6353 322.453 71.8474 331.491C71.6564 332.39 72.0207 333.212 72.511 333.668C73.4049 334.499 74.9408 334.583 75.7718 333.689C76.0395 333.401 76.2502 333.059 76.3172 332.582L79.1605 317.265L85.623 310.314C86.4815 309.391 86.454 307.915 85.5029 307.03Z" fill="#0D0D0D"/>
<path d="M58.6803 294.841C56.091 291.566 51.1781 289.225 46.5134 292.914C42.4355 296.138 42.2051 300.989 45.8932 305.654L51.0955 312.234C51.9756 313.346 53.1059 313.506 54.2479 312.602L72.7848 297.947C73.7733 297.166 73.9721 295.703 73.1904 294.715C72.3831 293.695 70.9141 293.551 69.9257 294.333C66.5586 296.995 64.1051 299.036 62.3861 300.545L64.4753 285.088C64.558 284.369 64.432 283.766 64.0421 283.272C63.284 282.314 61.884 282.066 61.0196 282.75C60.6474 283.043 60.3757 283.46 60.3048 284.068C59.5526 289.784 59.1293 293.632 59.1194 295.397L58.6803 294.841ZM49.4119 303.374C47.238 300.624 47.5491 297.969 49.6797 296.284C51.8122 294.598 54.498 294.884 56.6719 297.634L60.165 302.051L52.905 307.791L49.4119 303.374Z" fill="#0D0D0D"/>
<path d="M55.9432 270.115C53.1905 265.337 48.5533 263.282 44.3218 265.719C36.2683 270.358 45.0582 281.519 39.6334 284.644C37.7569 285.725 35.7071 284.769 34.567 282.79C33.4072 280.777 33.8148 278.724 35.1813 277.073C36.0044 276.054 36.0005 275.102 35.587 274.385C35.0179 273.395 33.5943 272.897 32.401 273.585C32.1273 273.742 31.8398 273.953 31.6114 274.266C29.3312 277.171 29.0457 281.016 31.2077 284.77C33.7616 289.206 38.2373 290.901 42.1282 288.66C50.0459 284.1 41.9608 272.668 46.978 269.779C48.8546 268.698 51.0698 269.467 52.5643 272.061C53.8029 274.211 53.7654 276.595 51.7905 278.687C50.993 279.51 50.9615 280.483 51.3927 281.233C51.9834 282.257 53.411 282.843 54.6732 282.116C55.0158 281.92 55.2836 281.674 55.5809 281.322C58.1388 278.031 58.1643 273.971 55.9432 270.115Z" fill="#0D0D0D"/>
<path d="M43.3432 244.247C42.9297 243.225 41.7187 242.653 40.6239 243.097C39.5665 243.526 39.0447 244.757 39.474 245.816L43.2782 255.195L23.1681 263.348C22.0004 263.822 21.3998 265.17 21.8882 266.375C22.3608 267.542 23.7312 268.092 24.8989 267.618L46.797 258.74C48.1103 258.207 48.5809 257.167 48.0335 255.816L43.3432 244.247Z" fill="#0D0D0D"/>
<path d="M39.6275 239.958C41.0747 239.578 41.5375 238.235 41.2559 237.168C40.9566 236.026 39.9031 235.121 38.4559 235.502L29.0496 237.975L26.7872 229.367C26.5056 228.301 25.3615 227.665 24.2943 227.945C23.2664 228.215 22.5832 229.332 22.8628 230.398L25.1252 239.006L17.4695 241.018L14.8172 230.925C14.5375 229.859 13.4112 229.137 12.2672 229.437C11.1251 229.737 10.499 230.92 10.7806 231.986L13.9941 244.212C14.384 245.698 15.4433 246.316 16.928 245.925L39.6275 239.958Z" fill="#0D0D0D"/>
</svg>
