<svg width="382" height="383" viewBox="0 0 382 383" fill="none" xmlns="http://www.w3.org/2000/svg">
<path d="M35.9374 176.495C36.7447 168.147 30.8316 160.967 22.5615 160.168C14.2894 159.366 7.07083 165.276 6.26351 173.627C5.46407 181.897 11.3772 189.076 19.6886 189.88C27.9981 190.683 35.138 184.766 35.9374 176.495Z" fill="#F4F4F4"/>
<path d="M40.5156 148.393C42.2956 142.019 39.9918 137.819 35.4019 136.539C31.9895 135.586 28.6755 136.909 27.2066 139.975C27.1653 137.632 25.7987 135.494 22.5379 134.582C18.3261 133.408 14.9925 135.83 13.4054 141.519L11.2985 149.068C10.885 150.547 11.4856 151.614 12.9663 152.028L35.27 158.254C36.7487 158.666 37.816 158.065 38.2295 156.586L40.5156 148.393ZM15.6836 148.003L17.1978 142.578C17.9598 139.847 19.7714 138.634 22.1225 139.292C24.6252 139.991 25.4325 141.933 24.6705 144.664L23.1562 150.088L15.6836 148.003ZM26.5332 151.032L28.2581 144.849C29.1481 141.661 31.4224 140.253 34.0393 140.983C36.6188 141.702 37.6328 144.071 36.7231 147.334L35.0297 153.402L26.5332 151.032Z" fill="#F4F4F4"/>
<path d="M49.3155 125.954C52.2593 119.722 50.4005 113.879 43.2784 110.518L30.4223 104.447C29.2822 103.91 27.8664 104.416 27.3289 105.556C26.7913 106.696 27.3151 108.076 28.4552 108.614L41.4176 114.734C46.1906 116.987 47.2205 120.523 45.5054 124.156C43.8081 127.751 40.4232 129.203 35.6502 126.95L22.6878 120.828C21.5477 120.291 20.1497 120.763 19.5944 121.939C19.0568 123.077 19.5806 124.457 20.7207 124.995L33.5768 131.065C40.6989 134.429 46.3895 132.15 49.3155 125.954Z" fill="#F4F4F4"/>
<path d="M55.2542 109.519C56.5203 110.317 57.8179 109.74 58.4067 108.807C59.0368 107.808 58.9797 106.422 57.7136 105.623L37.5995 92.9281C36.3334 92.1287 35.0574 92.6741 34.4273 93.6725C33.8386 94.6058 33.8405 96.0038 35.1401 96.8249L55.2542 109.519Z" fill="#F4F4F4"/>
<path d="M71.8101 89.9509C72.4874 89.0806 72.3791 87.7475 71.4458 87.0229C70.5459 86.3199 69.2188 86.4853 68.5178 87.3852L62.2975 95.3717L45.1784 82.0372C44.184 81.2633 42.717 81.4169 41.9176 82.4428C41.1438 83.4372 41.3525 84.8983 42.3469 85.6721L60.9881 100.192C62.1065 101.062 63.2446 100.95 64.1386 99.8002L71.8101 89.9509Z" fill="#F4F4F4"/>
<path d="M81.9311 79.3753C88.2616 73.4031 87.856 65.3397 82.4765 59.6412C77.099 53.9408 69.073 53.0665 62.7425 59.0387L57.7587 63.7409C56.6423 64.7943 56.6068 66.0191 57.6603 67.1375L73.5507 83.979C74.6061 85.0974 75.8309 85.1328 76.9474 84.0794L81.9311 79.3753ZM62.2285 65.2649L65.6075 62.075C69.6756 58.2373 74.8562 58.2767 79.1252 62.8016C83.3961 67.3285 83.1342 72.5012 79.0661 76.339L75.6871 79.5289L62.2285 65.2649Z" fill="#F4F4F4"/>
<path d="M102.102 59.8007C102.849 61.0963 104.247 61.1554 105.202 60.606C106.225 60.0153 106.822 58.763 106.096 57.5008L101.183 48.9688L112.716 42.3252L117.63 50.8572C118.377 52.1548 119.808 52.1942 120.763 51.6428C121.754 51.0738 122.35 49.8214 121.624 48.5573L109.752 27.945C109.004 26.6494 107.622 26.5372 106.633 27.1062C105.676 27.6576 104.993 28.9138 105.759 30.2449L110.672 38.7769L99.1369 45.4206L94.2241 36.8886C93.4778 35.5909 92.0955 35.4787 91.0716 36.0694C90.1146 36.6188 89.4648 37.8573 90.2308 39.1884L102.102 59.8007Z" fill="#F4F4F4"/>
<path d="M131.414 19.2944C130.463 18.1721 129.201 17.5833 127.942 18.0382L126.794 18.4556C125.684 18.8573 125.048 20.2199 125.046 21.6022L125.107 46.0423C125.103 46.379 125.16 46.6508 125.255 46.9107C125.709 48.1689 127.139 48.5312 128.177 48.1551C128.955 47.8735 129.644 47.1214 129.602 45.9636L129.466 40.2729L139.834 36.5159L143.362 40.9345C144.071 41.8502 145.097 42.0234 145.912 41.7281C147.023 41.3244 147.923 39.9933 147.452 38.6977C147.371 38.4752 147.241 38.231 147.023 37.975L131.414 19.2944ZM129.388 36.2403C129.112 26.1192 128.862 23.2346 128.389 21.3541C129.297 23.1617 131.063 25.495 137.309 33.3674L129.388 36.2403Z" fill="#F4F4F4"/>
<path d="M162.6 37.7115C169.1 36.471 171.837 32.5427 170.945 27.8603C170.281 24.3789 167.621 22.0003 164.223 22.0476C166.302 20.9685 167.611 18.7946 166.977 15.4669C166.158 11.1743 162.507 9.26436 156.705 10.371L149.006 11.8399C147.497 12.1274 146.808 13.1415 147.096 14.6498L151.435 37.3965C151.723 38.9048 152.735 39.594 154.245 39.3045L162.6 37.7115ZM151.91 15.2956L157.441 14.2402C160.227 13.7085 162.118 14.7915 162.574 17.1898C163.063 19.7418 161.68 21.3289 158.896 21.8605L153.363 22.9159L151.91 15.2956ZM154.021 26.3579L160.326 25.1547C163.575 24.5365 165.849 25.9463 166.357 28.6164C166.859 31.2471 165.189 33.2083 161.862 33.8423L155.673 35.0238L154.021 26.3579Z" fill="#F4F4F4"/>
<path d="M175.791 33.7552C175.907 35.2458 177.146 35.9409 178.244 35.8562C179.422 35.7656 180.501 34.8914 180.385 33.3988L178.552 9.68331C178.437 8.19272 177.238 7.49369 176.059 7.58624C174.96 7.67091 173.84 8.50777 173.958 10.0397L175.791 33.7552Z" fill="#F4F4F4"/>
<path d="M195.184 35.4373C196.483 35.4786 197.54 34.4469 197.578 33.1866L198.248 11.4993L203.956 11.6745C205.097 11.71 206.071 10.7943 206.107 9.65226C206.142 8.51217 205.226 7.53749 204.085 7.50204L188.064 7.00783C186.923 6.97238 185.949 7.88799 185.914 9.03005C185.878 10.1702 186.794 11.1448 187.935 11.1803L193.643 11.3555L192.973 33.0449C192.934 34.3051 193.925 35.3999 195.184 35.4373Z" fill="#F4F4F4"/>
<path d="M217.591 37.7964C223.026 38.7258 227.567 36.4653 228.39 31.6509C229.957 22.4908 215.753 22.1403 216.809 15.9672C217.174 13.8328 219.217 12.864 221.469 13.2479C223.759 13.6398 225.079 15.2643 225.478 17.3692C225.738 18.6531 226.474 19.2576 227.289 19.3974C228.415 19.5903 229.707 18.8125 229.939 17.4539C229.992 17.1428 230.013 16.7864 229.917 16.4103C229.136 12.801 226.357 10.1289 222.087 9.39841C217.041 8.53595 212.881 10.9008 212.124 15.3253C210.584 24.3319 224.545 25.4011 223.569 31.1074C223.204 33.2419 221.198 34.4568 218.248 33.9527C215.803 33.5353 213.99 31.9856 213.639 29.1285C213.514 27.9904 212.786 27.3445 211.932 27.1988C210.767 27 209.404 27.7265 209.159 29.162C209.093 29.5499 209.11 29.9142 209.193 30.3671C210.095 34.4371 213.205 37.0461 217.591 37.7964Z" fill="#F4F4F4"/>
<path d="M247.208 45.7886C248.418 46.2631 249.759 45.6468 250.22 44.4752L258.147 24.2745L263.462 26.3617C264.525 26.7772 265.751 26.2436 266.168 25.1803C266.585 24.117 266.05 22.8922 264.987 22.4748L250.067 16.6207C249.004 16.2033 247.779 16.7369 247.361 17.8002C246.944 18.8635 247.479 20.0883 248.542 20.5057L253.857 22.5909L245.931 42.7917C245.47 43.9652 246.035 45.3278 247.208 45.7886Z" fill="#F4F4F4"/>
<path d="M275.562 46.7536C279.187 48.8251 284.619 49.1598 287.568 43.9949C290.146 39.4818 288.547 34.8959 283.383 31.9462L276.099 27.7875C274.868 27.0846 273.759 27.3582 273.036 28.6224L261.319 49.1421C260.694 50.2369 261.056 51.6684 262.151 52.2926C263.279 52.9365 264.695 52.521 265.32 51.4262C267.449 47.6988 268.962 44.8909 269.992 42.8489L273.831 57.9655C274.022 58.6645 274.364 59.1765 274.911 59.4896C275.971 60.0941 277.364 59.8007 277.91 58.8437C278.145 58.4322 278.242 57.9438 278.081 57.3531C276.643 51.7708 275.597 48.0433 274.947 46.4031L275.562 46.7536ZM280.971 35.3763C284.015 37.115 284.719 39.6925 283.371 42.0534C282.024 44.4124 279.425 45.1508 276.382 43.4121L271.491 40.6199L276.081 32.5842L280.971 35.3763Z" fill="#F4F4F4"/>
<path d="M307.705 51.5621C308.174 50.1699 308.027 48.7837 306.986 47.9429L306.037 47.1749C305.118 46.4326 303.623 46.5901 302.438 47.3029L281.547 59.9877C281.257 60.159 281.053 60.3481 280.879 60.5627C280.038 61.6043 280.467 63.0142 281.324 63.7073C281.968 64.2271 282.969 64.4299 283.938 63.7959L288.739 60.7379L297.313 67.671L295.354 72.9757C294.937 74.0567 295.319 75.0236 295.993 75.569C296.912 76.3113 298.516 76.394 299.383 75.3209C299.532 75.1377 299.674 74.8995 299.781 74.5785L307.705 51.5621ZM292.151 58.5857C300.673 53.1196 303.013 51.4144 304.38 50.038C303.301 51.7491 302.216 54.4684 298.705 63.8845L292.151 58.5857Z" fill="#F4F4F4"/>
<path d="M314.939 93.5857C315.868 93.9185 316.692 93.6605 317.221 93.1899C317.957 92.5342 318.185 91.4886 317.478 90.6931C317.295 90.4883 317.056 90.2776 316.703 90.1181C315.129 89.3581 313.686 88.2692 312.534 86.9755C309.131 83.1496 308.153 77.4314 313.419 72.745C318.743 68.0055 324.222 69.7185 327.6 73.5149C328.778 74.8381 329.718 76.4272 330.291 78.0773C330.409 78.4474 330.589 78.7093 330.772 78.9161C331.479 79.7096 332.545 79.6033 333.281 78.9496C333.839 78.4514 334.192 77.6638 333.966 76.758C333.422 74.6058 332.237 72.4457 330.561 70.5633C325.979 65.4142 317.857 62.626 310.355 69.3031C302.883 75.9526 304.622 84.4216 309.203 89.5707C310.853 91.4236 312.862 92.8512 314.939 93.5857Z" fill="#F4F4F4"/>
<path d="M348.418 101.83C349.234 102.009 349.859 101.889 350.323 101.592C351.284 100.976 351.418 99.5794 350.801 98.6185C350.44 98.0534 349.692 97.6911 348.734 97.5099L332.848 94.5543C334.889 93.432 336.501 92.4435 341.871 88.9996C343.131 88.1923 343.178 86.8041 342.54 85.8097C341.944 84.8822 340.677 84.2915 339.384 85.1205L319.362 97.9628C318.103 98.7721 318.077 100.192 318.673 101.119C319.311 102.114 320.59 102.649 321.85 101.842C327.518 98.207 329.221 97.0669 331.39 95.4896L326.554 111.364C326.24 112.406 326.358 113.174 326.698 113.704C327.4 114.798 328.793 115.074 329.755 114.458C330.185 114.18 330.543 113.717 330.707 113.097L334.659 99.0537L348.418 101.83Z" fill="#F4F4F4"/>
<path d="M336.147 126.851C334.967 127.294 334.331 128.625 334.774 129.805C335.231 131.022 336.586 131.607 337.766 131.165L344.513 128.633L346.492 133.904C348.622 139.583 353.449 142.358 358.979 140.282C364.584 138.179 366.099 133.026 364.052 127.568L361.16 119.863C360.662 118.536 359.634 118.038 358.27 118.55L336.147 126.851ZM358.045 123.555L360.106 129.049C361.213 131.998 360.435 134.857 357.264 136.047C354.093 137.236 351.604 135.647 350.483 132.66L348.422 127.166L358.045 123.555Z" fill="#F4F4F4"/>
<path d="M355.561 158.868C356.406 162.956 359.746 167.251 365.57 166.048C370.661 164.996 373.044 160.765 371.84 154.94L370.143 146.725C369.856 145.337 368.917 144.687 367.49 144.982L344.35 149.763C343.116 150.017 342.282 151.236 342.537 152.471C342.8 153.743 344.048 154.53 345.283 154.275C349.486 153.406 352.594 152.684 354.807 152.107L346.007 164.984C345.609 165.589 345.451 166.183 345.578 166.802C345.826 167.997 346.966 168.848 348.046 168.623C348.509 168.529 348.94 168.279 349.277 167.767C352.513 162.996 354.617 159.747 355.418 158.173L355.561 158.868ZM367.672 155.399C368.382 158.833 366.913 161.066 364.252 161.615C361.591 162.167 359.318 160.706 358.609 157.273L357.47 151.758L366.533 149.885L367.672 155.399Z" fill="#F4F4F4"/>
<path d="M347.064 186.446C347.283 194.555 353.589 200.491 361.817 200.269C370.045 200.047 376.021 193.779 375.802 185.67C375.582 177.52 369.276 171.624 361.049 171.847C352.821 172.069 346.844 178.297 347.064 186.446ZM351.394 186.329C351.244 180.778 355.622 176.602 361.173 176.452C366.724 176.303 371.321 180.235 371.471 185.786C371.621 191.337 367.243 195.513 361.692 195.663C356.142 195.813 351.544 191.879 351.394 186.329Z" fill="#F4F4F4"/>
<path d="M344.912 218.173C343.499 226.442 349.082 232.111 355.077 233.735C357.062 234.274 358.32 233.69 358.606 232.021L360.71 219.716C360.936 218.396 360.039 217.564 359.03 217.391C358.059 217.225 356.937 217.712 356.712 219.032L355.019 228.931C350.765 227.404 348.315 223.51 349.118 218.813C350.08 213.184 354.949 210.181 360.655 211.157C366.439 212.145 370 216.79 369.024 222.496C368.48 225.679 366.77 227.504 365.145 228.824C364.496 229.353 364.157 229.934 364.064 230.477C363.878 231.564 364.638 232.493 365.764 232.686C366.462 232.805 367.285 232.666 368.071 232.041C370.507 230.181 372.52 227.289 373.23 223.135C374.657 214.789 369.351 207.969 361.509 206.628C353.59 205.274 346.32 209.944 344.912 218.173Z" fill="#F4F4F4"/>
<path d="M348.813 248.756C347.421 252.692 348.056 258.097 353.662 260.081C358.562 261.815 362.791 259.427 364.775 253.821L367.574 245.914C368.047 244.577 367.581 243.535 366.207 243.049L343.932 235.165C342.744 234.744 341.4 235.354 340.98 236.543C340.546 237.768 341.207 239.088 342.395 239.508C346.441 240.94 349.475 241.931 351.667 242.581L337.473 249.046C336.82 249.357 336.376 249.785 336.166 250.379C335.759 251.53 336.295 252.848 337.334 253.216C337.78 253.373 338.278 253.382 338.831 253.119C344.069 250.712 347.55 249.02 349.05 248.088L348.813 248.756ZM360.971 252.057C359.802 255.361 357.389 256.513 354.828 255.606C352.266 254.699 351.078 252.273 352.247 248.969L354.126 243.66L362.85 246.748L360.971 252.057Z" fill="#F4F4F4"/>
<path d="M326.191 270.936C325.654 271.944 326.044 273.223 327.052 273.759C328.06 274.296 329.338 273.906 329.875 272.898L335.021 263.235L342.043 266.974L337.989 274.586C337.471 275.559 337.879 276.803 338.852 277.322C339.791 277.821 341.051 277.466 341.569 276.493L345.623 268.88L352.332 272.453L347.186 282.116C346.649 283.124 347.039 284.403 348.047 284.939C349.055 285.476 350.334 285.086 350.87 284.078L357.053 272.468C357.775 271.113 357.417 269.941 356.061 269.219L335.622 258.335C334.267 257.613 333.095 257.97 332.373 259.326L326.191 270.936Z" fill="#F4F4F4"/>
<path d="M317.803 282.836C314.56 287.294 314.571 292.367 318.52 295.24C326.036 300.707 332.65 288.133 337.714 291.816C339.465 293.09 339.427 295.352 338.084 297.199C336.717 299.078 334.676 299.541 332.611 298.964C331.346 298.628 330.477 299.019 329.991 299.688C329.319 300.612 329.443 302.114 330.558 302.925C330.813 303.11 331.123 303.287 331.502 303.368C335.083 304.269 338.711 302.963 341.26 299.46C344.271 295.32 343.997 290.543 340.366 287.902C332.978 282.527 325.828 294.566 321.146 291.16C319.395 289.886 319.195 287.55 320.956 285.129C322.415 283.123 324.607 282.185 327.323 283.138C328.4 283.532 329.3 283.164 329.81 282.463C330.505 281.508 330.459 279.965 329.28 279.108C328.962 278.876 328.629 278.731 328.186 278.604C324.138 277.607 320.421 279.237 317.803 282.836Z" fill="#F4F4F4"/>
<path d="M303.443 300.037C299.601 303.992 298.895 309.015 302.397 312.417C309.064 318.893 317.391 307.381 321.882 311.744C323.436 313.253 323.079 315.486 321.487 317.125C319.868 318.792 317.782 318.961 315.82 318.098C314.615 317.587 313.7 317.851 313.124 318.444C312.328 319.263 312.238 320.769 313.227 321.729C313.453 321.948 313.735 322.167 314.099 322.301C317.517 323.699 321.293 322.921 324.311 319.813C327.878 316.141 328.283 311.373 325.062 308.245C318.508 301.879 309.727 312.784 305.575 308.751C304.021 307.242 304.154 304.9 306.239 302.753C307.968 300.974 310.271 300.355 312.824 301.683C313.835 302.225 314.778 301.989 315.382 301.367C316.205 300.52 316.378 298.985 315.333 297.97C315.05 297.696 314.741 297.505 314.32 297.316C310.454 295.757 306.543 296.845 303.443 300.037Z" fill="#F4F4F4"/>
<path d="M279.581 336.094L293.1 341.046L285.164 346.178C284.337 346.713 284.091 347.856 284.647 348.716C285.182 349.543 286.326 349.788 287.152 349.254L298.661 341.812C299.785 341.085 300.126 340.161 299.655 339.434C299.42 339.07 298.977 338.747 298.313 338.519L290.649 335.878L290.749 335.814C295.544 332.713 297.029 327.25 294.057 322.653C290.999 317.924 285.248 316.719 280.42 319.841C277.113 321.979 275.911 324.398 275.535 330.128L269.907 327.952C269.147 327.646 268.402 327.799 267.84 328.163C266.881 328.783 266.392 330.131 267.012 331.09C267.248 331.454 267.615 331.732 268.17 331.936L275.538 334.628L275.498 344.503C275.492 344.928 275.606 345.323 275.778 345.588C276.376 346.514 277.707 346.685 278.599 346.108C279.063 345.809 279.409 345.257 279.43 344.492L279.581 336.094ZM282.739 323.5C285.418 321.768 288.685 322.469 290.375 325.081C292.214 327.926 291.351 331.016 288.706 332.726C286.953 333.86 285.271 333.869 283.087 333.03L279.643 331.693C279.846 326.496 280.424 324.997 282.739 323.5Z" fill="#F4F4F4"/>
<path d="M245.497 350.408C241.556 351.786 237.74 355.666 239.703 361.279C241.419 366.186 245.929 367.988 251.542 366.025L259.46 363.256C260.799 362.788 261.319 361.772 260.838 360.396L253.038 338.092C252.622 336.902 251.305 336.236 250.115 336.652C248.888 337.082 248.273 338.423 248.689 339.613C250.106 343.665 251.233 346.65 252.099 348.767L238.171 341.747C237.519 341.433 236.907 341.355 236.312 341.563C235.16 341.966 234.468 343.209 234.832 344.25C234.988 344.696 235.293 345.09 235.845 345.356C241.002 347.933 244.501 349.588 246.166 350.174L245.497 350.408ZM250.536 361.954C247.227 363.112 244.819 361.951 243.922 359.386C243.025 356.821 244.172 354.376 247.481 353.219L252.797 351.36L255.852 360.095L250.536 361.954Z" fill="#F4F4F4"/>
<path d="M214.356 346.628C213.234 346.842 212.482 347.948 212.696 349.07C212.91 350.191 214.016 350.943 215.138 350.729L225.892 348.678L227.382 356.492L218.911 358.108C217.827 358.314 217.115 359.412 217.321 360.496C217.521 361.54 218.588 362.299 219.671 362.092L228.142 360.476L229.566 367.942L218.812 369.993C217.69 370.207 216.939 371.313 217.153 372.435C217.367 373.557 218.473 374.308 219.594 374.094L232.515 371.63C234.023 371.342 234.712 370.328 234.425 368.82L230.086 346.073C229.798 344.565 228.785 343.876 227.276 344.164L214.356 346.628Z" fill="#F4F4F4"/>
<path d="M175.586 376.369C176.492 376.373 177.439 375.864 177.76 374.645C181.436 360.718 182.476 356.587 182.919 353.792C183.498 356.984 184.35 360.493 187.843 373.935C188.27 375.591 189.37 376.422 190.906 376.428C192.363 376.434 193.587 375.651 193.987 374.038C197.504 360.544 198.503 356.727 199.028 353.5C199.49 356.298 200.303 359.767 204.184 374.668C204.494 375.89 205.477 376.445 206.422 376.449C207.603 376.453 208.828 375.592 208.833 374.174C208.834 373.977 208.835 373.741 208.757 373.504L202.505 350.52C202.078 348.904 200.782 348.033 199.285 348.027C197.75 348.021 196.526 348.804 196.046 350.574C192.531 363.36 191.492 367.451 191.046 370.6C190.741 368 189.966 364.649 186.397 350.616C185.932 348.763 184.597 347.97 183.139 347.965C181.564 347.959 180.339 348.781 179.861 350.472L173.392 373.525C173.312 373.761 173.272 373.997 173.27 374.234C173.266 375.533 174.405 376.365 175.586 376.369Z" fill="#F4F4F4"/>
<path d="M152.572 369.979C152.8 371.432 153.57 372.592 154.881 372.858L156.078 373.1C157.236 373.335 158.489 372.504 159.211 371.324L171.884 350.426C172.061 350.141 172.156 349.878 172.211 349.608C172.477 348.296 171.443 347.243 170.364 347.024C169.553 346.86 168.57 347.143 168.005 348.153L165.158 353.081L154.352 350.891L153.639 345.282C153.511 344.131 152.725 343.45 151.874 343.278C150.717 343.043 149.256 343.711 148.982 345.062C148.935 345.294 148.919 345.572 148.972 345.904L152.572 369.979ZM163.126 356.567C158.091 365.351 156.801 367.943 156.226 369.795C156.394 367.78 156.1 364.867 154.866 354.893L163.126 356.567Z" fill="#F4F4F4"/>
<path d="M130.439 348.195C126.536 346.714 121.118 347.227 119.009 352.787C117.164 357.647 119.456 361.928 125.016 364.038L132.857 367.015C134.184 367.518 135.236 367.075 135.754 365.712L144.138 343.621C144.585 342.443 144.004 341.085 142.827 340.638C141.612 340.177 140.277 340.808 139.83 341.986C138.306 345.999 137.248 349.01 136.547 351.187L130.406 336.851C130.108 336.191 129.691 335.737 129.102 335.514C127.96 335.081 126.631 335.587 126.239 336.618C126.072 337.06 126.052 337.558 126.302 338.116C128.59 343.407 130.205 346.926 131.101 348.446L130.439 348.195ZM126.865 360.275C123.589 359.032 122.492 356.594 123.455 354.053C124.42 351.513 126.871 350.379 130.148 351.623L135.413 353.621L132.131 362.274L126.865 360.275Z" fill="#F4F4F4"/>
<path d="M115.13 328.686C107.604 324.314 99.9893 326.996 96.0531 333.772C92.1169 340.549 93.5603 348.492 101.086 352.864L107.011 356.305C108.338 357.077 109.524 356.763 110.296 355.435L121.925 335.411C122.697 334.083 122.384 332.899 121.054 332.127L115.13 328.686ZM107.2 351.588L103.183 349.254C98.3471 346.445 96.9116 341.467 100.037 336.087C103.162 330.706 108.196 329.486 113.033 332.295L117.051 334.629L107.2 351.588Z" fill="#F4F4F4"/>
<path d="M85.5029 307.03C84.5794 306.172 83.1065 306.254 82.248 307.177L75.7855 314.127L60.6591 318.076C60.1353 318.235 59.7534 318.472 59.4856 318.76C58.6802 319.625 58.8988 321.011 59.7356 321.788C60.3126 322.325 61.1278 322.546 62.065 322.289C70.6758 319.97 73.0209 319.355 74.7734 318.511C74.0902 320.403 73.6353 322.453 71.8474 331.491C71.6564 332.39 72.0207 333.212 72.511 333.668C73.4049 334.499 74.9408 334.583 75.7718 333.689C76.0395 333.401 76.2502 333.059 76.3172 332.582L79.1605 317.265L85.623 310.314C86.4815 309.391 86.454 307.915 85.5029 307.03Z" fill="#F4F4F4"/>
<path d="M58.6802 294.841C56.0909 291.566 51.178 289.225 46.5133 292.914C42.4354 296.138 42.205 300.989 45.8931 305.654L51.0954 312.234C51.9755 313.346 53.1058 313.506 54.2478 312.602L72.7847 297.947C73.7732 297.166 73.972 295.703 73.1903 294.715C72.383 293.695 70.914 293.551 69.9256 294.333C66.5585 296.995 64.105 299.036 62.386 300.545L64.4752 285.088C64.5579 284.369 64.4319 283.766 64.042 283.272C63.2839 282.314 61.8839 282.066 61.0195 282.75C60.6473 283.043 60.3756 283.46 60.3047 284.068C59.5525 289.784 59.1292 293.632 59.1193 295.397L58.6802 294.841ZM49.4118 303.374C47.2379 300.624 47.549 297.969 49.6796 296.284C51.8121 294.598 54.4979 294.884 56.6718 297.634L60.1649 302.051L52.9049 307.791L49.4118 303.374Z" fill="#F4F4F4"/>
<path d="M55.9431 270.115C53.1904 265.337 48.5532 263.282 44.3217 265.719C36.2682 270.358 45.0581 281.519 39.6333 284.644C37.7568 285.725 35.707 284.769 34.5669 282.79C33.4071 280.777 33.8147 278.724 35.1812 277.073C36.0043 276.054 36.0004 275.102 35.5869 274.385C35.0178 273.395 33.5942 272.897 32.4009 273.585C32.1272 273.742 31.8397 273.953 31.6113 274.266C29.3311 277.171 29.0456 281.016 31.2076 284.77C33.7615 289.206 38.2372 290.901 42.1281 288.66C50.0458 284.1 41.9607 272.668 46.9779 269.779C48.8545 268.698 51.0697 269.467 52.5642 272.061C53.8028 274.211 53.7653 276.595 51.7904 278.687C50.9929 279.51 50.9614 280.483 51.3926 281.233C51.9833 282.257 53.4109 282.843 54.6731 282.116C55.0157 281.92 55.2835 281.674 55.5808 281.322C58.1387 278.031 58.1642 273.971 55.9431 270.115Z" fill="#F4F4F4"/>
<path d="M43.3432 244.247C42.9297 243.225 41.7187 242.653 40.6239 243.097C39.5665 243.526 39.0447 244.757 39.474 245.816L43.2782 255.195L23.1681 263.348C22.0004 263.822 21.3998 265.17 21.8882 266.375C22.3608 267.542 23.7312 268.092 24.8989 267.618L46.797 258.74C48.1103 258.207 48.5809 257.167 48.0335 255.816L43.3432 244.247Z" fill="#F4F4F4"/>
<path d="M39.6276 239.958C41.0748 239.578 41.5376 238.235 41.256 237.168C40.9567 236.026 39.9032 235.121 38.456 235.502L29.0497 237.975L26.7873 229.367C26.5057 228.301 25.3616 227.665 24.2944 227.945C23.2665 228.215 22.5833 229.332 22.8629 230.398L25.1253 239.006L17.4696 241.018L14.8173 230.925C14.5376 229.859 13.4113 229.137 12.2673 229.437C11.1252 229.737 10.4991 230.92 10.7807 231.986L13.9942 244.212C14.3841 245.698 15.4434 246.316 16.9281 245.925L39.6276 239.958Z" fill="#F4F4F4"/>
</svg>
