<svg width="21" height="21" viewBox="0 0 21 21" fill="none" xmlns="http://www.w3.org/2000/svg">
<g clip-path="url(#clip0_240_50)">
<path d="M10.6496 12.4819V9.61275H20.3175C20.412 10.1124 20.461 10.7039 20.461 11.3444C20.461 13.4969 19.873 16.1586 17.976 18.0548C16.1315 19.9754 13.7751 21 10.6531 21C4.86588 21 0 16.2864 0 10.5C0 4.71363 4.86588 0 10.6531 0C13.8548 0 16.135 1.2565 17.8482 2.89362L15.8235 4.9175C14.595 3.76512 12.9299 2.86913 10.6496 2.86913C6.42425 2.86913 3.11937 6.27463 3.11937 10.5C3.11937 14.7254 6.42425 18.1309 10.6496 18.1309C13.3901 18.1309 14.9511 17.0301 15.9512 16.03C16.7624 15.2189 17.2961 14.0604 17.5061 12.4784L10.6496 12.4819Z" fill="black"/>
</g>
<defs>
<clipPath id="clip0_240_50">
<rect width="21" height="21" fill="white"/>
</clipPath>
</defs>
</svg>
